<svg xmlns="http://www.w3.org/2000/svg" viewBox="0 0 800 450" width="800" height="450">
  <defs>
    <clipPath id="card-clip-biz">
      <rect width="800" height="450" rx="24" ry="24"/>
    </clipPath>
  </defs>
  <g clip-path="url(#card-clip-biz)">
    <rect width="800" height="450" fill="#0f1b3d"/>
    <circle cx="720" cy="60" r="180" fill="#b05a1a" opacity="0.85"/>
    <circle cx="130" cy="420" r="140" fill="#162050" opacity="1"/>
    <rect x="200" y="160" width="220" height="14" rx="7" fill="#3a5a9b" opacity="0.7"/>
    <rect x="200" y="192" width="160" height="14" rx="7" fill="#3a5a9b" opacity="0.7"/>
    <rect x="200" y="224" width="200" height="14" rx="7" fill="#3a5a9b" opacity="0.7"/>
    <polygon points="560,120 568,144 594,144 574,158 582,182 560,168 538,182 546,158 526,144 552,144" fill="#f5c842"/>
    <!-- Icon box -->
    <rect x="570" y="210" width="160" height="160" rx="22" fill="#1a2550" opacity="0.9"/>
    <rect x="570" y="210" width="160" height="160" rx="22" fill="none" stroke="#f59c42" stroke-width="2.5"/>
    <!-- Bar chart icon -->
    <rect x="608" y="315" width="22" height="45" rx="4" fill="#f59c42"/>
    <rect x="639" y="290" width="22" height="70" rx="4" fill="#f5c842"/>
    <rect x="670" y="265" width="22" height="95" rx="4" fill="#f59c42"/>
    <!-- Upward arrow -->
    <polyline points="608,305 639,280 670,255" fill="none" stroke="#ffffff" stroke-width="2.5" stroke-dasharray="5,4" opacity="0.5"/>
    <text x="80" y="335" font-family="Arial, sans-serif" font-size="44" font-weight="900" fill="#ffffff">Business &amp;</text>
    <text x="80" y="388" font-family="Arial, sans-serif" font-size="44" font-weight="900" fill="#ffffff">Management</text>
  </g>
</svg>
