<svg xmlns="http://www.w3.org/2000/svg" viewBox="0 0 800 450" width="800" height="450">
  <defs>
    <clipPath id="card-clip-health">
      <rect width="800" height="450" rx="24" ry="24"/>
    </clipPath>
  </defs>
  <g clip-path="url(#card-clip-health)">
    <rect width="800" height="450" fill="#0f1b3d"/>
    <circle cx="720" cy="60" r="180" fill="#a01a4a" opacity="0.85"/>
    <circle cx="130" cy="420" r="140" fill="#162050" opacity="1"/>
    <rect x="200" y="160" width="220" height="14" rx="7" fill="#3a5a9b" opacity="0.7"/>
    <rect x="200" y="192" width="160" height="14" rx="7" fill="#3a5a9b" opacity="0.7"/>
    <rect x="200" y="224" width="200" height="14" rx="7" fill="#3a5a9b" opacity="0.7"/>
    <polygon points="560,120 568,144 594,144 574,158 582,182 560,168 538,182 546,158 526,144 552,144" fill="#f5c842"/>
    <!-- Icon box -->
    <rect x="570" y="210" width="160" height="160" rx="22" fill="#1a2550" opacity="0.9"/>
    <rect x="570" y="210" width="160" height="160" rx="22" fill="none" stroke="#f06080" stroke-width="2.5"/>
    <!-- Cross / plus icon -->
    <rect x="638" y="248" width="24" height="64" rx="8" fill="#f06080"/>
    <rect x="618" y="268" width="64" height="24" rx="8" fill="#f06080"/>
    <!-- Heartbeat line -->
    <polyline points="588,355 608,355 618,335 628,370 638,340 648,355 712,355" fill="none" stroke="#f5c842" stroke-width="3" stroke-linecap="round" stroke-linejoin="round"/>
    <text x="80" y="335" font-family="Arial, sans-serif" font-size="52" font-weight="900" fill="#ffffff">Health &amp;</text>
    <text x="80" y="388" font-family="Arial, sans-serif" font-size="52" font-weight="900" fill="#ffffff">Medical</text>
  </g>
</svg>
