<svg xmlns="http://www.w3.org/2000/svg" viewBox="0 0 800 450" width="800" height="450">
  <defs>
    <clipPath id="card-clip-it">
      <rect width="800" height="450" rx="24" ry="24"/>
    </clipPath>
  </defs>
  <g clip-path="url(#card-clip-it)">
    <rect width="800" height="450" fill="#0f1b3d"/>
    <circle cx="720" cy="60" r="180" fill="#1a6c5e" opacity="0.85"/>
    <circle cx="130" cy="420" r="140" fill="#162050" opacity="1"/>
    <rect x="200" y="160" width="220" height="14" rx="7" fill="#3a5a9b" opacity="0.7"/>
    <rect x="200" y="192" width="160" height="14" rx="7" fill="#3a5a9b" opacity="0.7"/>
    <rect x="200" y="224" width="200" height="14" rx="7" fill="#3a5a9b" opacity="0.7"/>
    <polygon points="560,120 568,144 594,144 574,158 582,182 560,168 538,182 546,158 526,144 552,144" fill="#f5c842"/>
    <!-- Icon box -->
    <rect x="570" y="210" width="160" height="160" rx="22" fill="#1a2550" opacity="0.9"/>
    <rect x="570" y="210" width="160" height="160" rx="22" fill="none" stroke="#2dd4a0" stroke-width="2.5"/>
    <!-- Shield icon -->
    <path d="M650 235 L690 248 L690 278 Q690 308 650 322 Q610 308 610 278 L610 248 Z" fill="#2dd4a0" opacity="0.2"/>
    <path d="M650 235 L690 248 L690 278 Q690 308 650 322 Q610 308 610 278 L610 248 Z" fill="none" stroke="#2dd4a0" stroke-width="3.5"/>
    <!-- Checkmark inside shield -->
    <polyline points="634,278 646,290 668,265" fill="none" stroke="#f5c842" stroke-width="4" stroke-linecap="round" stroke-linejoin="round"/>
    <text x="80" y="340" font-family="Arial, sans-serif" font-size="44" font-weight="900" fill="#ffffff">IT &amp; Cybersecurity</text>
    <text x="80" y="378" font-family="Arial, sans-serif" font-size="22" font-weight="700" fill="#6dcfb8">Security Learning Track</text>
  </g>
</svg>
