<svg xmlns="http://www.w3.org/2000/svg" viewBox="0 0 800 450" width="800" height="450">
  <defs>
    <clipPath id="card-clip-sustain">
      <rect width="800" height="450" rx="24" ry="24"/>
    </clipPath>
  </defs>
  <g clip-path="url(#card-clip-sustain)">
    <rect width="800" height="450" fill="#0f1b3d"/>
    <circle cx="720" cy="60" r="180" fill="#1a6b2a" opacity="0.85"/>
    <circle cx="130" cy="420" r="140" fill="#162050" opacity="1"/>
    <rect x="200" y="160" width="220" height="14" rx="7" fill="#3a5a9b" opacity="0.7"/>
    <rect x="200" y="192" width="160" height="14" rx="7" fill="#3a5a9b" opacity="0.7"/>
    <rect x="200" y="224" width="200" height="14" rx="7" fill="#3a5a9b" opacity="0.7"/>
    <polygon points="560,120 568,144 594,144 574,158 582,182 560,168 538,182 546,158 526,144 552,144" fill="#f5c842"/>
    <!-- Icon box -->
    <rect x="570" y="210" width="160" height="160" rx="22" fill="#1a2550" opacity="0.9"/>
    <rect x="570" y="210" width="160" height="160" rx="22" fill="none" stroke="#4dcb70" stroke-width="2.5"/>
    <!-- Leaf icon -->
    <path d="M650 245 Q700 255 695 305 Q670 320 650 310 Q620 295 625 265 Q635 248 650 245 Z" fill="#4dcb70" opacity="0.25"/>
    <path d="M650 245 Q700 255 695 305 Q670 320 650 310 Q620 295 625 265 Q635 248 650 245 Z" fill="none" stroke="#4dcb70" stroke-width="3"/>
    <!-- Stem -->
    <line x1="650" y1="310" x2="650" y2="360" stroke="#4dcb70" stroke-width="3" stroke-linecap="round"/>
    <!-- Vein -->
    <line x1="650" y1="275" x2="678" y2="268" stroke="#4dcb70" stroke-width="2" opacity="0.6" stroke-linecap="round"/>
    <line x1="650" y1="290" x2="682" y2="288" stroke="#4dcb70" stroke-width="2" opacity="0.6" stroke-linecap="round"/>
    <text x="80" y="330" font-family="Arial, sans-serif" font-size="40" font-weight="900" fill="#ffffff">Sustainability &amp;</text>
    <text x="80" y="380" font-family="Arial, sans-serif" font-size="40" font-weight="900" fill="#ffffff">Environment</text>
  </g>
</svg>
