<svg width="220" height="220" viewBox="0 0 220 220" fill="none" xmlns="http://www.w3.org/2000/svg"><rect width="220" height="220" rx="58" fill="#EEF2FF"/><circle cx="110" cy="98" r="48" fill="#FDBA74"/><path d="M62 95c8-47 68-66 104-33 23 21 19 59-6 71-15-40-42-54-98-38z" fill="#111827"/><path d="M36 206c12-48 43-72 75-72s63 24 75 72H36z" fill="#2563EB"/><circle cx="91" cy="102" r="5" fill="#111827"/><circle cx="129" cy="102" r="5" fill="#111827"/><path d="M96 121c10 8 21 8 31 0" stroke="#111827" stroke-width="5" stroke-linecap="round"/><path d="M28 43l7 14 15 2-11 11 3 15-14-7-14 7 3-15-11-11 15-2 7-14z" fill="#FBBF24"/></svg>
