<svg width="620" height="360" viewBox="0 0 620 360" fill="none" xmlns="http://www.w3.org/2000/svg">
  <path d="M79 117c-20-33-2-66 38-58" stroke="#4F46E5" stroke-width="4" stroke-linecap="round" stroke-dasharray="9 12"/>
  <path d="M493 51l10 19 21 3-15 15 4 21-20-10-19 10 4-21-15-15 21-3 9-19z" stroke="#F59E0B" stroke-width="4" stroke-linejoin="round"/>
  <path d="M152 196l9 20 22 2-17 15 5 22-19-12-20 12 6-22-17-15 22-2 9-20z" fill="#A855F7" fill-opacity=".22" stroke="#8B5CF6" stroke-width="4"/>
  <path d="M353 69l7 14 15 2-11 11 3 15-14-7-14 7 3-15-11-11 15-2 7-14z" fill="#FBBF24" stroke="#F59E0B" stroke-width="3"/>
  <path d="M541 194l5 11 12 2-9 8 2 12-10-6-11 6 3-12-9-8 12-2 5-11z" fill="#34D399" stroke="#10B981" stroke-width="3"/>
  <circle cx="244" cy="91" r="5" fill="#4F46E5"/><circle cx="438" cy="157" r="4" fill="#F59E0B"/><circle cx="580" cy="86" r="5" fill="#4F46E5"/><circle cx="302" cy="265" r="4" fill="#10B981"/>
</svg>
